<svg width="100%" height="100%" id="svg" viewBox="0 0 1440 690" xmlns="http://www.w3.org/2000/svg" class="transition duration-300 ease-in-out delay-150"><path d="M 0,700 C 0,700 0,140 0,140 C 66.94358974358974,138.3128205128205 133.88717948717948,136.62564102564102 209,138 C 284.1128205128205,139.37435897435898 367.39487179487173,143.81025641025641 448,152 C 528.6051282051283,160.18974358974359 606.5333333333333,172.13333333333335 696,168 C 785.4666666666667,163.86666666666665 886.4717948717948,143.65641025641025 981,131 C 1075.5282051282052,118.34358974358976 1163.5794871794874,113.24102564102566 1239,116 C 1314.4205128205126,118.75897435897434 1377.2102564102563,129.37948717948717 1440,140 C 1440,140 1440,700 1440,700 Z" stroke="none" stroke-width="0" fill="#2e3440" fill-opacity="0.265" class="transition-all duration-300 ease-in-out delay-150 path-0"></path><path d="M 0,700 C 0,700 0,280 0,280 C 76.86666666666665,302.3307692307692 153.7333333333333,324.66153846153844 235,324 C 316.2666666666667,323.33846153846156 401.9333333333333,299.68461538461537 489,284 C 576.0666666666667,268.31538461538463 664.5333333333333,260.6 744,255 C 823.4666666666667,249.4 893.9333333333334,245.91538461538465 963,251 C 1032.0666666666666,256.08461538461535 1099.7333333333333,269.73846153846154 1179,276 C 1258.2666666666667,282.26153846153846 1349.1333333333332,281.13076923076926 1440,280 C 1440,280 1440,700 1440,700 Z" stroke="none" stroke-width="0" fill="#2e3440" fill-opacity="0.4" class="transition-all duration-300 ease-in-out delay-150 path-1"></path><path d="M 0,700 C 0,700 0,420 0,420 C 79.66410256410259,421.93589743589746 159.32820512820518,423.8717948717949 235,410 C 310.6717948717948,396.1282051282051 382.35128205128206,366.4487179487179 463,372 C 543.648717948718,377.5512820512821 633.2666666666668,418.33333333333337 708,424 C 782.7333333333332,429.66666666666663 842.5820512820512,400.21794871794873 934,391 C 1025.4179487179488,381.78205128205127 1148.4051282051282,392.79487179487177 1238,401 C 1327.5948717948718,409.20512820512823 1383.797435897436,414.6025641025641 1440,420 C 1440,420 1440,700 1440,700 Z" stroke="none" stroke-width="0" fill="#2e3440" fill-opacity="0.53" class="transition-all duration-300 ease-in-out delay-150 path-2"></path><path d="M 0,700 C 0,700 0,560 0,560 C 79.39487179487179,548.1897435897436 158.78974358974358,536.3794871794872 243,533 C 327.2102564102564,529.6205128205128 416.2358974358974,534.6717948717949 492,530 C 567.7641025641026,525.3282051282051 630.2666666666668,510.9333333333334 703,522 C 775.7333333333332,533.0666666666666 858.6974358974358,569.5948717948718 953,578 C 1047.3025641025642,586.4051282051282 1152.9435897435897,566.6871794871795 1236,559 C 1319.0564102564103,551.3128205128205 1379.5282051282052,555.6564102564103 1440,560 C 1440,560 1440,700 1440,700 Z" stroke="none" stroke-width="0" fill="#2e3440" fill-opacity="1" class="transition-all duration-300 ease-in-out delay-150 path-3"></path></svg>
